<?xml version="1.0" encoding="utf-8"?>
<!-- Generator: Adobe Illustrator 19.0.0, SVG Export Plug-In . SVG Version: 6.00 Build 0)  -->
<svg version="1.1" xmlns="http://www.w3.org/2000/svg" xmlns:xlink="http://www.w3.org/1999/xlink" x="0px" y="0px" viewBox="202.2 764.4 965.8 783.5" style="enable-background:new 202.2 764.4 965.8 783.5;" xml:space="preserve">
	<style type="text/css">
		.st0{fill:none;stroke:#6792E0;stroke-width:3;stroke-linecap:round;stroke-linejoin:round;stroke-miterlimit:10;}
		.st1{fill:none;stroke:#B3B3B3;stroke-width:7;stroke-linecap:round;stroke-miterlimit:10;}
		.st2{fill:#032A6F;}
		.st3{fill:#FF6500;}
		.st4{fill:#B3B3B3;}
		.st5{font-family:'DroidSansMono-Regular';}
		.st6{font-size:20px;}
		.st7{opacity:0.1;fill:#032A6F;enable-background:new    ;}
		.st8{font-size:50px;}
		.st9{opacity:0.11;fill:#032A6F;enable-background:new    ;}
		.st10{font-size:30px;}
		.st11{opacity:0.25;fill:#032A6F;enable-background:new    ;}
		.st12{display:none;}
	</style>
	<g id="river">
		<polyline id="river_4_" class="st0" points="310.9,961.8 340.7,961.8 340.5,986.4 370.3,1016.2 364.3,1010.2 393.3,1039 
			393.3,1065.7 379.8,1079.3 355.3,1079.3 345.3,1089.1 345.3,1120.2 344.8,1133.7 362,1134.3 371,1125.3 382.3,1125.3 382.3,1133.7 
			392,1143.3 409.3,1143.3 409.3,1157.3 425,1157.3 438.6,1143.8 450.9,1156.1 427.4,1179.8 427.4,1199.1 438.4,1210.2 448.1,1200.4 
			465.8,1200.4 474.8,1209.4 454.3,1229.9 454.3,1253.2 471.3,1253.6 471.3,1276.4 490.3,1276.4 499.6,1269.5 562.5,1269.2 
			562.8,1286.4 599.7,1286.4 646.7,1240.2 646.7,1240.3 657,1240.3 670.5,1253.3 679.7,1244 688.5,1244.1 688.2,1258.5 699.1,1269.3 
			731,1237.3 747.4,1237.3 747.4,1226.5 767.5,1206.3 791.9,1206.3 805.4,1220.5 805.4,1244.2 819.1,1257.7 860,1257.2 871.5,1268.4 
			887.7,1268.4 897.8,1258.3 933,1258.3 968.9,1293.5 969,1326.6 1000,1326.3 1031,1326.3 1031,1339.7 1043.2,1351.9 1072.5,1351.9 
			1072.1,1326 1113.1,1285 1159.1,1285 	"/>
	</g>
	<g id="roads">
		<line id="a34_1_" class="st1" x1="331.3" y1="860.7" x2="331.2" y2="1490.2"/>
		<line id="m4_1_" class="st1" x1="1009.3" y1="1316.9" x2="297.1" y2="1316.9"/>
		<polyline id="m3_2_" class="st1" points="1023.6,1371.7 886.3,1508.5 492.5,1509.6 	"/>
		<polyline id="m40_1_" class="st1" points="1051.1,1175.9 655.5,1174.4 331.4,878 	"/>
		<polyline class="st1" points="1159.1,1158.9 1068.1,1158.9 1009.5,1217.4 	"/>
		<polyline class="st1" points="1159.1,1416.3 1068.1,1416.3 1009.5,1357.7 1009.5,1217.4 	"/>
	</g>
	<g id="circles">
		<circle id="oxford" class="st2" cx="363.5" cy="1006.4" r="18"/>
		<circle id="marlow" class="st2" cx="776.3" cy="1207.8" r="9"/>
		<circle id="maidenhead" class="st2" cx="813.3" cy="1255.3" r="9"/>
		<circle id="bracknell" class="st2" cx="842.9" cy="1416.3" r="9"/>
		<circle id="wokingham" class="st2" cx="738.3" cy="1392" r="9"/>
		<circle id="basingstoke" class="st2" cx="547" cy="1509.6" r="9"/>
		<circle id="reading" class="st2" cx="595.2" cy="1316.9" r="9"/>
		<circle id="henley" class="st3" cx="643" cy="1243.2" r="9"/>
		<circle id="abingdon" class="st2" cx="345.5" cy="1090.1" r="9"/>
		<circle id="didcot" class="st2" cx="354.5" cy="1222.9" r="9"/>
		<circle id="newbury" class="st2" cx="311" cy="1362.1" r="9"/>
		<circle id="bicester" class="st2" cx="331.4" cy="878" r="9"/>
		<circle id="slough" class="st2" cx="952.2" cy="1276.4" r="18"/>
		<circle id="london" class="st2" cx="1108.2" cy="1287.2" r="39.5"/>
		<circle id="hwycombe" class="st2" cx="767.3" cy="1133.5" r="9"/>
	</g>
	<g id="road-text_1_">
		<text id="XMLID_26_" transform="matrix(1 0 0 1 266.3985 1324.6566)" class="st4 st5 st6">M4</text>
		<text id="XMLID_25_" transform="matrix(1 0 0 1 1125.1427 1407.2623)" class="st4 st5 st6">M25</text>
		<text id="XMLID_24_" transform="matrix(1 0 0 1 496.6756 1530.7729)" class="st4 st5 st6">M3</text>
		<text id="XMLID_23_" transform="matrix(1 0 0 1 863.4051 1168.1929)" class="st4 st5 st6">M40</text>
		<text id="XMLID_22_" transform="matrix(1 0 0 1 1125.1425 1150.9954)" class="st4 st5 st6">M25</text>
		<text id="XMLID_21_" transform="matrix(1 0 0 1 310.8926 852.44)" class="st4 st5 st6">A34</text>
		<text id="XMLID_20_" transform="matrix(1 0 0 1 310.8928 1512.1443)" class="st4 st5 st6">A34</text>
	</g>
	<g id="top-text_1_">
		<text id="front-text1" transform="matrix(1.0237 0 0 1 213.3011 813.9284)" class="st7 st5 st8">Tindall Resourcing Ltd</text>
		<text id="front-text2" transform="matrix(1.0237 0 0 1 213.3011 813.9284)" class="st9 st5 st10">Experts in IT and Software Development recruitment</text>
		<text id="front-text3" transform="matrix(1.0237 0 0 1 213.3011 813.9284)" class="st11 st5 st10">Oxfordshire, Berkshire, Thames Valley and London</text>
	</g>
	<g id="town-text_1_">
		<text id="XMLID_19_" transform="matrix(1 0 0 1 383.6244 1024.4358)" class="st2 st5 st6">Oxford</text>
		<text id="XMLID_18_" transform="matrix(1 0 0 1 363.4843 1248.7805)" class="st2 st5 st6">Didcot</text>
		<text id="XMLID_17_" transform="matrix(1 0 0 1 354.4843 1110.2223)" class="st2 st5 st6">Abingdon</text>
		<text transform="matrix(0.9328 0 0 1 511.9544 1209.6307)" class="st3 st5 st6">Henley-on-Thames</text>
		<text transform="matrix(0.9328 0 0 1 584.7133 1233.6307)" class="st3 st5 st6">HQ!</text>
		<text id="XMLID_16_" transform="matrix(1 0 0 1 1072.4988 1238.3604)" class="st2 st5 st6">London</text>
		<text id="XMLID_15_" transform="matrix(1 0 0 1 700.5181 1119.7219)" class="st2 st5 st6">High Wycombe</text>
		<text id="XMLID_14_" transform="matrix(1 0 0 1 342.918 877.9622)" class="st2 st5 st6">Bicester</text>
		<text id="XMLID_13_" transform="matrix(1 0 0 1 682.0003 1371.7344)" class="st2 st5 st6">Wokingham</text>
		<text id="XMLID_12_" transform="matrix(1 0 0 1 490.3654 1493.3158)" class="st2 st5 st6">Basingstoke</text>
		<text id="XMLID_11_" transform="matrix(1 0 0 1 793.6415 1400.9623)" class="st2 st5 st6">Bracknell</text>
		<text id="XMLID_10_" transform="matrix(1 0 0 1 553.167 1344.7675)" class="st2 st5 st6">Reading</text>
		<text id="XMLID_9_" transform="matrix(1 0 0 1 213.3014 1351.9498)" class="st2 st5 st6">Newbury</text>
		<text id="XMLID_7_" transform="matrix(1 0 0 1 863.4052 1301.2498)" class="st2 st5 st6">Slough</text>
		<text id="XMLID_3_" transform="matrix(1 0 0 1 822.2843 1246.2631)" class="st2 st5 st6">Maidenhead</text>
		<text id="XMLID_1_" transform="matrix(1 0 0 1 785.2843 1200.8224)" class="st2 st5 st6">Marlow</text>
	</g>
</svg>
